<svg xmlns="http://www.w3.org/2000/svg" xmlns:xlink="http://www.w3.org/1999/xlink" version="1.1" x="0px" y="0px" viewBox="0 0 64 80" style="enable-background:new 0 0 64 64;" xml:space="preserve"><g><path d="M62.78,8.84H10.75c-0.63,0-1.15,0.51-1.15,1.15v6.31c0,0.63,0.51,1.15,1.15,1.15s1.15-0.51,1.15-1.15v-5.16h49.73v28.94   h-4.75c-0.63,0-1.15,0.51-1.15,1.15c0,0.63,0.51,1.15,1.15,1.15h5.89c0.63,0,1.15-0.51,1.15-1.15V9.98   C63.93,9.35,63.42,8.84,62.78,8.84z"/><path d="M53.94,18.47H1.22c-0.63,0-1.15,0.51-1.15,1.15v34.4c0,0.63,0.51,1.15,1.15,1.15h52.72c0.63,0,1.15-0.51,1.15-1.15v-34.4   C55.09,18.98,54.58,18.47,53.94,18.47z M52.79,20.76v24.1l-8.57,0l-7.63-6.34c-0.42-0.35-1.03-0.35-1.45-0.01l-7.43,5.93   l-11.26-12.4c-0.22-0.24-0.53-0.38-0.85-0.38c0,0,0,0,0,0c-0.32,0-0.63,0.14-0.85,0.37L2.37,45.57V20.76H52.79z M2.37,52.87v-3.9   l13.23-14.45l11.14,12.27c0.41,0.45,1.09,0.5,1.57,0.13l7.54-6.02l7.23,6c0.21,0.17,0.47,0.26,0.73,0.26l8.99,0v5.7L2.37,52.87   L2.37,52.87z"/><path d="M43.23,32.97c2.51,0,4.55-2.04,4.55-4.55c0-2.51-2.04-4.55-4.55-4.55c-2.51,0-4.55,2.04-4.55,4.55S40.72,32.97,43.23,32.97   z M43.23,26.16c1.24,0,2.26,1.01,2.26,2.26s-1.01,2.26-2.26,2.26s-2.26-1.01-2.26-2.26C40.98,27.17,41.99,26.16,43.23,26.16z"/></g></svg>
