<svg xmlns="http://www.w3.org/2000/svg" viewBox="0 0 64 80"><path d="M62.78 8.84H10.75c-.63 0-1.15.51-1.15 1.15v6.31a1.15 1.15 0 002.3 0v-5.16h49.73v28.94h-4.75a1.15 1.15 0 000 2.3h5.89c.63 0 1.15-.51 1.15-1.15V9.98c.01-.63-.5-1.14-1.14-1.14z"/><path d="M53.94 18.47H1.22c-.63 0-1.15.51-1.15 1.15v34.4c0 .63.51 1.15 1.15 1.15h52.72c.63 0 1.15-.51 1.15-1.15v-34.4c0-.64-.51-1.15-1.15-1.15zm-1.15 2.29v24.1h-8.57l-7.63-6.34c-.42-.35-1.03-.35-1.45-.01l-7.43 5.93-11.26-12.4a1.16 1.16 0 00-.85-.38c-.32 0-.63.14-.85.37L2.37 45.57V20.76h50.42zM2.37 52.87v-3.9L15.6 34.52l11.14 12.27c.41.45 1.09.5 1.57.13l7.54-6.02 7.23 6c.21.17.47.26.73.26h8.99v5.7l-50.43.01z"/><path d="M43.23 32.97c2.51 0 4.55-2.04 4.55-4.55s-2.04-4.55-4.55-4.55-4.55 2.04-4.55 4.55 2.04 4.55 4.55 4.55zm0-6.81c1.24 0 2.26 1.01 2.26 2.26s-1.01 2.26-2.26 2.26-2.26-1.01-2.26-2.26a2.27 2.27 0 012.26-2.26z"/></svg>