<svg xmlns="http://www.w3.org/2000/svg" viewBox="0 0 64 81.25" fill-rule="evenodd" clip-rule="evenodd" stroke-linecap="round" stroke-linejoin="round" stroke-miterlimit="2"><path style="line-height:normal;font-variant-ligatures:normal;font-variant-position:normal;font-variant-caps:normal;font-variant-numeric:normal;font-variant-alternates:normal;font-variant-east-asian:normal;font-feature-settings:normal;font-variation-settings:normal;text-indent:0;text-align:start;text-decoration-line:none;text-decoration-style:solid;text-decoration-color:#000;text-transform:none;text-orientation:mixed;white-space:normal;shape-padding:0;shape-margin:0;inline-size:0;isolation:auto;mix-blend-mode:normal;solid-color:#000;solid-opacity:1;filter-blend-mode:normal;filter-gaussianBlur-deviation:0" d="M28.436 6.75a.75.75 0 00-.623.344c-.136.21-.24.436-.356.656H19c-3.705 0-6.726 3.007-6.75 6.707a.75.75 0 000 .004v.039c0 2.423 1.315 4.509 3.24 5.7-.22.496-.49.975-.49 1.55 0 2.2 1.8 4 4 4 1.366 0 2.487-.77 3.209-1.822.262.032.52.072.791.072 2.155 0 3.993-1.128 5.176-2.75h2.48c.03 2.479 2.056 4.5 4.541 4.5 1.586 0 2.892-.899 3.707-2.137.321.042.641.09.973.09 2.723 0 5.074-1.494 6.38-3.68h3.88a8.388 8.388 0 007.05-12.93.75.75 0 00-1.037-.224.75.75 0 00-.224 1.037 6.886 6.886 0 01-5.79 10.617h-4.261a.75.75 0 00-.668.409 5.978 5.978 0 01-6.418 3.172.75.75 0 00-.021-.004.75.75 0 00-.065-.01s-.054.016-.426-.182c-.371-.198-.965-.602-1.73-1.42a.75.75 0 00-.516-.238.75.75 0 00-.543.203.75.75 0 00-.035 1.059c.828.884 1.521 1.39 2.05 1.681a3.04 3.04 0 01-2.306 1.057 3.044 3.044 0 01-2.996-3.625.75.75 0 00-.795-.89c-.133.01-.27.015-.406.015h-2.02c.117-.63.107-1.484-.277-2.512a.75.75 0 00-.74-.488.75.75 0 00-.225.047.75.75 0 00-.441.965c.318.85.284 1.434.2 1.804-.085.371-.18.47-.18.47a.75.75 0 00-.016.02.75.75 0 00-.022.032.75.75 0 00-.011.016.75.75 0 00-.002.003 4.993 4.993 0 01-5.194 2.307.75.75 0 00-.816.412A2.498 2.498 0 0119 24.25a2.49 2.49 0 01-2.5-2.5c0-.539.168-1.03.455-1.438a.75.75 0 00-.281-1.103A5.246 5.246 0 0113.75 14.5v-.039A5.238 5.238 0 0119 9.25h8.9a.75.75 0 00.684-.441 7.03 7.03 0 01.49-.903.75.75 0 00-.224-1.037.75.75 0 00-.414-.119zm-10.948 20c-.233 0-.465.035-.69.107a.75.75 0 00-.001.002 2.237 2.237 0 00-1.39 1.307.75.75 0 00-.003.004c-.102.263-.153.54-.154.814a.75.75 0 000 .004v6.996c-1.398.147-4.172.44-5.105.537a3.24 3.24 0 00-2.895 3.213V55.75H6a.75.75 0 00-.75.75.75.75 0 00.75.75h52a.75.75 0 00.75-.75.75.75 0 00-.75-.75h-1.25V35.213a3.231 3.231 0 00-3.568-3.215l-4.432.465v-3.475a.75.75 0 000-.006 2.237 2.237 0 00-1.52-2.115h-.001a2.232 2.232 0 00-.717-.117h-3.024c-.233 0-.465.035-.69.107a.75.75 0 00-.001.002 2.237 2.237 0 00-1.39 1.307.75.75 0 00-.003.004c-.102.263-.153.54-.154.814a.75.75 0 000 .004v4.264l-5.5.578v-4.842a.75.75 0 000-.006 2.237 2.237 0 00-1.52-2.115h-.001a2.232 2.232 0 00-.717-.117h-3.024c-.233 0-.465.035-.69.107a.75.75 0 00-.001.002 2.237 2.237 0 00-1.39 1.307.75.75 0 00-.003.004c-.102.263-.153.54-.154.814a.75.75 0 000 .004v5.631l-11.5 1.21v-6.842a.77.77 0 01.05-.27.772.772 0 01.458-.433.75.75 0 01.23-.035h3.024c.081 0 .164.014.236.04a.77.77 0 01.463.462.77.77 0 01.039.236V33a.75.75 0 00.75.75.75.75 0 00.75-.75v-4.012a.75.75 0 000-.006 2.237 2.237 0 00-1.52-2.115h-.001a2.232 2.232 0 00-.717-.117h-3.024zm13 1.5h3.024c.081 0 .164.014.236.04a.77.77 0 01.463.462.77.77 0 01.039.236v5l-4.5.473v-5.473a.77.77 0 01.05-.27.772.772 0 01.458-.433.75.75 0 01.23-.035zm13 0h3.024c.081 0 .164.014.236.04a.77.77 0 01.463.462.77.77 0 01.039.236v3.633l-4.5.473v-4.106a.77.77 0 01.05-.27.772.772 0 01.458-.433.75.75 0 01.23-.035zm9.85 5.24c.489-.05.974.108 1.338.436a.75.75 0 00.002 0c.365.328.572.795.572 1.287V55.75H8.75V39.734a1.72 1.72 0 011.55-1.72l31.772-3.34 6-.631 5.266-.553zm-1.649 1.977a2.254 2.254 0 00-.48.012l-3.307.437a.75.75 0 00-.646.84.75.75 0 00.842.646s1.856-.243 3.306-.435a.75.75 0 01.846.74V42.5a.75.75 0 00.75.75.75.75 0 00.75-.75v-4.793a2.248 2.248 0 00-2.06-2.24zM12.94 40.75a1.45 1.45 0 00-1.439 1.44v2.888c0 .382.152.747.42 1.016h.002v.002c.271.272.639.422 1.017.422h2.498a1.45 1.45 0 001.405-1.122l.656-2.888a1.442 1.442 0 00-1.404-1.758H12.94zm7.286 0c-.669 0-1.257.47-1.405 1.121a.75.75 0 00.567.897.75.75 0 00.883-.518h2.48v2.768h-3.156a.75.75 0 00-1.032-.098.75.75 0 00-.12 1.055c.273.345.688.543 1.124.543h3.245c.378 0 .746-.15 1.017-.422l.002-.002a1.44 1.44 0 00.42-1.016V42.19a1.437 1.437 0 00-1.44-1.439h-2.585zM13 42.25h3.018l-.63 2.768H13V42.25zm40 3.232a.75.75 0 00-.75.75V47.5a.75.75 0 00.75.75.75.75 0 00.75-.75v-1.268a.75.75 0 00-.75-.75zM20.064 47.75a1.45 1.45 0 00-1.439 1.44v2.888c0 .382.152.747.42 1.016h.002v.002c.271.272.639.422 1.017.422h2.498a1.45 1.45 0 001.405-1.122l.656-2.888a1.442 1.442 0 00-1.404-1.758h-3.155zm7.286 0c-.669 0-1.257.47-1.405 1.121l-.656 2.887a.75.75 0 000 .004c-.095.424.008.871.28 1.213v.002c.273.344.687.54 1.122.54h3.245c.378 0 .746-.149 1.017-.421l.002-.002a1.44 1.44 0 00.42-1.016V49.19a1.437 1.437 0 00-1.44-1.439H27.35zm-7.225 1.5h3.018l-.63 2.768h-2.388V49.25zm7.273 0h2.477v2.768H26.77l.628-2.768z" color="#000" font-weight="400" font-family="sans-serif" clip-rule="nonzero" overflow="visible" fill-rule="nonzero"/></svg>