<svg xmlns="http://www.w3.org/2000/svg" viewBox="0 0 204.07 64.08"><defs><style>.cls-1{fill:var(--highlight)}</style></defs><g id="Layer_2" data-name="Layer 2"><g id="Layer_1-2" data-name="Layer 1"><path class="cls-1" d="M148.54 39.61c11.45-3.46 12.77-5.6 14.23-8.23 1.19-2.14.1-5.51-1.45-5-25.94 8.89-5.82-11.68-9.15-14.52-.95-.82-3.33.6-4.94 0-2.65-1-3.44-2.75-8.07-2-4.17-2.79-5.72 1-10.16-2.3-2.51-.63-3.64 2.24-7.69.55-1.86-1.33-4.45 2.33-7.62.21-1.15-.77-6.67-1.37-7.77-.64-3.1 2.09-5.5 1.23-3.54 4.43 2.14 3.47 10.62 9.23 15.55 11.43 9.95 4.45 13.51 2.64 15.06 3.06 4.12 1.13 4.49 6.86 3.88 10.67s-2.61 4.23-4.16 8.52c-1.82 5 2.32 4.23 6.25.68 7.54-6.82 4.82-5.49 9.58-6.92"/><path class="cls-1" d="M202.2 31.07c7.6-3.27-9.72-2.63-20.34-8.71-.27-.39-5.86-1.93-8.08-4.32-2.62-2.5-1.71.05-5.52-3-1.64-.51-1.43.65-4.38-.52-1.59-1.23-2.67-.83-4-.63a23 23 0 00-2.88-1c-2-.9-4 3.52-5.74 9.35-1.08 3.71 1 4.93 4.8 3.15 1.9-.89 6.88-2 8.41.11s.33 7.35-1.26 9.76-.6 2.27.82 2.43c3.59.43 27.75-11.53 21.26-.29-3 5.15 4.37-3.42 5.64-3.52.38 0 8.44-1.58 11.29-2.8M91.16 9.44c.11-1.14-5.35.12-10.32-.88A125 125 0 0064.19.6c-2.87-1-3.77-.52-3.94-.34-3 3.22 6.64 6.11-.18 11.29-3.07 2.33-5.28 2.47-6.56 3-13.8 4.69 1.83 4.88 1.83 4.88 4.23.21 14.94-1.6 21.43-5.77 4.45-2.85 13.93-.29 14.39-4.19m-2.8 31.43c5.77.58 2-6.88 1.17-8.41C79.34 13 65.8 37.46 68.66 37.44c11.74-.67.78 7 5.68 6.81 7.84-.36 7.86-4 14-3.35"/><path class="cls-1" d="M112.81 24.39c-13.25-12.62-12-12.71-16.41-13.07s-3.4 1.17-9.85 2.38c-5.87 1.1-9 .31-12 3.1-4.55 4.25-16.08 4.75-23.73 4.76S48.45 20.43 32.56 23C24.11 14.74-3.76-1 .43 5.18c3.1 4.61 14.17 13.08 16.3 16.12 1.67 2.39 5.29 8.43 2.64 12.15-.24.32-7.61 6.28-8.36 7.39-1.62 2.42-.92 8.77 2.36 5.61C20 40 22.27 38.63 33.06 32c1.71.21 6.17-.4 10-.74 5.37-.48 9.65 2.5 10.31 4.18 1.3 3.35-6.58 10.49-3.51 10.61 5.32.2 12-3.51 14.25-8.94 2.94-7 3-7.53 13.34-13.53s15.16 15.63 24.78 17 28.65.33 31.49-5.87c5.77-12.63-9.69.43-20.92-10.26M34.74 55.22L32.55 64H30.6l-1.66-6.1a16.09 16.09 0 01-.36-1.9 14.83 14.83 0 01-.37 1.83L26.57 64h-1.86l-2.21-8.78c-.24 0-.58-.09-.81-.14v-1h3.58v1a8.88 8.88 0 01-1.11.18l1.21 4.85c.16.66.28 1.29.38 1.95.11-.65.22-1.28.38-1.88l1.67-6.08h1.73l1.71 6.06c.14.53.28 1.2.39 1.83.1-.61.2-1.18.33-1.72l1.21-5a9 9 0 01-1.08-.18v-1h3.47v1c-.22.04-.56.1-.82.13zM41.36 64v-1a9.18 9.18 0 011.09-.18L42 61.44h-3.9l-.5 1.38a9 9 0 011.1.18v1h-3.51v-1a5.93 5.93 0 01.84-.16l3.1-8.74H41l3.14 8.74A5.93 5.93 0 0145 63v1zm-.9-6.77a12.79 12.79 0 01-.46-1.56 10.63 10.63 0 01-.45 1.57l-1 2.94h3zm10.8-.53c-.08-.51-.17-.94-.2-1.3H49.3v7.41a7.8 7.8 0 011.25.19v1h-4.08v-1a7.93 7.93 0 011.26-.19V55.4H46c0 .36-.1.79-.19 1.3h-1.17v-2.6h7.75v2.6zm2.11 7.3v-1a7.93 7.93 0 011.26-.19v-7.56a7.93 7.93 0 01-1.26-.19v-1h6.45v2.36h-1.14c-.07-.4-.14-.8-.17-1.11h-2.32v3h1.86a4.88 4.88 0 01.19-.91h1v3h-1a4.5 4.5 0 01-.19-.9h-1.86v3.2h2.33c0-.35.11-.75.19-1.17h1.14V64zm13.76 0l-2.64-4.3h-.25v3.11a5.51 5.51 0 011 .18v1h-3.81V63a7.8 7.8 0 011.25-.19v-7.56a7.8 7.8 0 01-1.25-.19v-1h1.12c.38 0 1.55-.06 2.73-.06 2 0 3.41.71 3.41 2.67a2.75 2.75 0 01-2.57 2.71 10 10 0 01.58.82l1.69 2.56 1 .17v1zm-2.06-8.63h-.83v3.13h.77c1.27 0 2-.66 2-1.64s-.63-1.52-1.94-1.52zM75.69 64v-1a7.4 7.4 0 01.82-.15L73.25 59v3.77a6.18 6.18 0 011 .18v1h-3.81V63a7.8 7.8 0 011.25-.19v-7.56a7.8 7.8 0 01-1.25-.19v-1h3.84v1a7.37 7.37 0 01-1 .17v3.54l3.22-3.57a4.15 4.15 0 01-.88-.14v-1h3.77v1c-.3.07-.67.13-1 .18L75 58.83l3.57 4a8.66 8.66 0 011 .18v1zm4.91 0v-1a7.93 7.93 0 011.26-.19v-7.56a7.93 7.93 0 01-1.26-.19v-1h6.46v2.36h-1.15c-.07-.4-.14-.8-.17-1.11h-2.32v3h1.86a4.88 4.88 0 01.19-.91h1v3h-1a4.5 4.5 0 01-.19-.9h-1.86v3.2h2.34a9.59 9.59 0 01.18-1.17h1.14V64zm8.06 0v-1a7.93 7.93 0 011.26-.19v-7.56a7.93 7.93 0 01-1.26-.19v-1h6.45v2.36H94c-.07-.4-.14-.8-.17-1.11h-2.36v3h1.87a5.86 5.86 0 01.18-.91h1v3h-1a5.31 5.31 0 01-.18-.9h-1.87v3.2h2.34a9.74 9.74 0 01.19-1.19h1.14V64zm11.59-3.65a6.11 6.11 0 01-.72 0v2.49a8.11 8.11 0 011.26.19v1h-4.07V63a7.8 7.8 0 011.28-.19v-7.56a7.8 7.8 0 01-1.25-.19v-1h1.09c.47 0 1.66-.06 2.64-.06 2.31 0 3.59 1.14 3.59 3s-1.54 3.35-3.82 3.35zm.09-5a7 7 0 00-.81 0V59a5.36 5.36 0 00.69.06c1.32 0 2.18-.75 2.18-1.9s-.65-1.82-2.06-1.82zM105 64v-1a7.8 7.8 0 011.25-.19v-7.56a7.8 7.8 0 01-1.25-.19v-1h6.45v2.36h-1.14c-.07-.4-.14-.8-.17-1.11h-2.33v3h1.87a5.86 5.86 0 01.18-.91h1v3h-1a4.49 4.49 0 01-.18-.9h-1.87v3.2h2.34a9.74 9.74 0 01.19-1.17h1.14V64zm13.42 0l-2.65-4.27h-.24v3.11a5.4 5.4 0 011 .18v1h-3.81V63a8.11 8.11 0 011.26-.19v-7.56a8.11 8.11 0 01-1.26-.19v-1h1.13c.37 0 1.54-.06 2.73-.06 2 0 3.4.71 3.4 2.67a2.74 2.74 0 01-2.56 2.71 8 8 0 01.57.82l1.69 2.56 1 .17v1zm-2.07-8.63h-.82v3.13h.76c1.27 0 2-.66 2-1.64s-.63-1.52-1.94-1.52zm8.77.17a1.9 1.9 0 01-.57 1.39 1.87 1.87 0 01-1.38.58 1.84 1.84 0 01-1.37-.58 2 2 0 010-2.78 1.84 1.84 0 011.37-.58 1.87 1.87 0 011.38.58 1.92 1.92 0 01.57 1.39zm-.28 0a1.62 1.62 0 00-.49-1.19 1.59 1.59 0 00-1.18-.5 1.69 1.69 0 00-1.67 1.69 1.63 1.63 0 00.49 1.2 1.67 1.67 0 002.36 0 1.65 1.65 0 00.49-1.2zm-.75 1.15h-.37l-.44-1h-.62v1h-.33V54.4h1a.73.73 0 01.58.2.62.62 0 01.2.45.68.68 0 01-.11.35.54.54 0 01-.33.23zm-1.43-1.25h.59a.44.44 0 00.34-.11.38.38 0 00.11-.29.32.32 0 00-.12-.27.44.44 0 00-.29-.09h-.63zM135.88 64l-.88-2.46h-4.3l-.87 2.46h-1.14l3.62-9.87h1.2l3.62 9.87zm-2.57-7.21a9.6 9.6 0 01-.43-1.45c-.12.48-.26.95-.43 1.43L131 60.65h3.72zM139 64v-9.9h1.11V63h3.61v1zm6.5 0v-9.9h1.11V63h3.61v1zm6.5 0v-9.9h1.12V64zm10.16 0l-.85-2.43H157l-.89 2.43H155l3.62-9.87h1.2l3.59 9.87zm-2.57-7.21a11 11 0 01-.44-1.45 13 13 0 01-.44 1.43l-1.41 3.91h3.7zM171.44 64l-4.05-6.56a22.18 22.18 0 01-1.12-2c0 1.12.09 3.83.09 5.54v3h-1.08V54.1h1.47l4 6.4c.42.69.83 1.42 1.2 2.11-.06-1.32-.1-4-.1-5.81v-2.7h1.08V64zm8.25.08c-3 0-4.41-1.9-4.41-4.82S176.7 54 180 54a9.44 9.44 0 012.25.29l-.12 1a7.66 7.66 0 00-2.32-.38c-2.37 0-3.35 1.87-3.35 4.12 0 2.55 1.11 4 3.49 4a5.59 5.59 0 002.3-.53l.12 1a7 7 0 01-2.68.58zm5.25-.08v-9.9h4.91v.9h-3.8v3.42h3.61v.91h-3.61V63h3.8v1z"/></g></g></svg>