<svg id="Layer_1" data-name="Layer 1" xmlns="http://www.w3.org/2000/svg" viewBox="0 0 63.85 46.33"><path d="M62.71,0h-52A1.15,1.15,0,0,0,9.53,1.15V7.46a1.15,1.15,0,1,0,2.3,0V2.3H61.56V31.24H56.81a1.15,1.15,0,0,0,0,2.3H62.7a1.15,1.15,0,0,0,1.15-1.15V1.14A1.13,1.13,0,0,0,62.71,0Z"/><path d="M53.87,9.63H1.15A1.15,1.15,0,0,0,0,10.78v34.4a1.15,1.15,0,0,0,1.15,1.15H53.87A1.15,1.15,0,0,0,55,45.18V10.78A1.14,1.14,0,0,0,53.87,9.63Zm-1.15,2.29V36H44.15l-7.63-6.34a1.15,1.15,0,0,0-1.45,0L27.64,35.6,16.38,23.2a1.16,1.16,0,0,0-.85-.38h0a1.19,1.19,0,0,0-.85.37L2.3,36.73V11.92ZM2.3,44v-3.9L15.53,25.68,26.67,38a1.16,1.16,0,0,0,1.57.13l7.54-6,7.23,6a1.16,1.16,0,0,0,.73.26h9V44Z"/><path d="M43.16,24.13a4.55,4.55,0,1,0-4.55-4.55A4.55,4.55,0,0,0,43.16,24.13Zm0-6.81a2.26,2.26,0,1,1-2.26,2.26A2.26,2.26,0,0,1,43.16,17.32Z"/></svg>