<svg id="Layer_1" data-name="Layer 1" xmlns="http://www.w3.org/2000/svg" viewBox="0 0 81.98 60"><path d="M81.06,54.88a17.15,17.15,0,0,1-3.29-3.19C75.45,49,72.82,46,67.56,46s-7.89,3-10.21,5.69C55.25,54.1,53.59,56,50.16,56s-5.1-1.9-7.2-4.31C40.64,49,38,46,32.75,46s-7.89,3-10.21,5.69C20.45,54.1,18.79,56,15.35,56s-5.09-1.9-7.19-4.31a17.22,17.22,0,0,0-5.33-4.61,2,2,0,0,0-1.76,3.59,14,14,0,0,1,4.07,3.64C7.47,57,10.1,60,15.35,60s7.89-3,10.21-5.69C27.66,51.9,29.32,50,32.75,50s5.09,1.9,7.19,4.31C42.26,57,44.89,60,50.16,60s7.89-3,10.21-5.69C62.46,51.9,64.12,50,67.56,50s5.1,1.9,7.19,4.31a20.33,20.33,0,0,0,4.11,3.91,2,2,0,1,0,2.25-3.3Z"/><path d="M81.06,39.88a17.15,17.15,0,0,1-3.29-3.19C75.45,34,72.82,31,67.56,31s-7.89,3-10.21,5.69C55.25,39.1,53.59,41,50.15,41S45.06,39.1,43,36.69C40.64,34,38,31,32.75,31s-7.89,3-10.21,5.69C20.45,39.1,18.79,41,15.35,41s-5.09-1.9-7.19-4.31a17.22,17.22,0,0,0-5.33-4.61,2,2,0,0,0-1.76,3.59,14,14,0,0,1,4.07,3.64C7.47,42,10.1,45,15.35,45s7.89-3,10.21-5.69C27.66,36.9,29.31,35,32.75,35s5.1,1.9,7.19,4.31C42.26,42,44.89,45,50.15,45S58,42,60.36,39.31c2.1-2.41,3.76-4.31,7.2-4.31s5.1,1.9,7.19,4.31a20.33,20.33,0,0,0,4.11,3.91,2,2,0,1,0,2.25-3.3Z"/><path d="M81.06,23.88a17.15,17.15,0,0,1-3.29-3.19C75.45,18,72.82,15,67.56,15s-7.89,3-10.21,5.69C55.25,23.1,53.59,25,50.16,25s-5.1-1.9-7.2-4.31C40.64,18,38,15,32.75,15s-7.89,3-10.21,5.69C20.45,23.1,18.79,25,15.35,25s-5.09-1.9-7.19-4.31a17.22,17.22,0,0,0-5.33-4.61,2,2,0,0,0-1.76,3.59,14,14,0,0,1,4.07,3.64C7.47,26,10.1,29,15.35,29s7.89-3,10.21-5.69C27.66,20.9,29.32,19,32.75,19s5.09,1.9,7.19,4.31C42.26,26,44.89,29,50.16,29s7.89-3,10.21-5.69C62.46,20.9,64.12,19,67.56,19s5.1,1.9,7.19,4.31a20.33,20.33,0,0,0,4.11,3.91,2,2,0,1,0,2.25-3.3Z"/><path d="M81.06,8.88a17.15,17.15,0,0,1-3.29-3.19C75.45,3,72.82,0,67.56,0S59.67,3,57.35,5.69C55.25,8.1,53.59,10,50.15,10S45.06,8.1,43,5.69C40.64,3,38,0,32.75,0S24.86,3,22.54,5.69C20.45,8.1,18.79,10,15.35,10S10.26,8.1,8.16,5.69A17.22,17.22,0,0,0,2.83,1.08,2,2,0,0,0,1.07,4.67,14,14,0,0,1,5.14,8.31C7.47,11,10.1,14,15.35,14s7.89-3,10.21-5.69C27.66,5.9,29.31,4,32.75,4s5.1,1.9,7.19,4.31C42.26,11,44.89,14,50.15,14S58,11,60.36,8.31C62.46,5.9,64.12,4,67.56,4s5.1,1.9,7.19,4.31a20.33,20.33,0,0,0,4.11,3.91,2,2,0,1,0,2.25-3.3Z"/></svg>